<?xml version="1.0" encoding="utf-8"?>
<!-- Generator: Adobe Illustrator 21.0.0, SVG Export Plug-In . SVG Version: 6.00 Build 0)  -->
<svg version="1.1" id="Layer_1" xmlns="http://www.w3.org/2000/svg" xmlns:xlink="http://www.w3.org/1999/xlink" x="0px" y="0px"
	 viewBox="0 0 90 112.5">
	 <style type="text/css">
	 svg#Layer_1{
	 	width: 200px;
	 	height: 200px;
	 }
	 path.cube{
	 	animation: light 2s infinite;
		transform-origin: center;
		
	 }
	 @keyframes light {
	 	0%{transform:rotateZ(0deg);}
	    20%{transform:rotateZ(72deg);}
	    40%{transform:rotateZ(144deg);}
	    60%{transform:rotateZ(216deg);}
	    80%{transform:rotateZ(288deg);}
	    100%{transform:rotateZ(360deg);}
	 }
	</style>
<path class="cube" d="M53.8,92C53.8,92,53.8,92,53.8,92C53.8,92,53.7,92,53.8,92C53.7,92,53.7,92,53.8,92L53.8,92c-0.1,0-0.2,0-0.3,0l-40.1-9.8
	c-0.1,0-0.1,0-0.2,0c0,0,0,0,0,0c-0.1,0-0.2-0.1-0.3-0.2c-0.1-0.1-0.2-0.2-0.3-0.3c0,0,0,0,0,0c-0.1-0.1-0.2-0.3-0.2-0.4
	c0-0.1-0.1-0.2-0.1-0.3c0-0.1,0-0.1,0-0.2V39.3c0-0.1,0-0.2,0-0.3c0,0,0,0,0,0c0,0,0,0,0,0c0,0,0,0,0,0c0-0.1,0-0.1,0.1-0.2l0,0
	c0,0,0,0,0,0l0,0c0,0,0,0,0,0c0,0,0,0,0,0c0,0,0,0,0,0c0,0,0,0,0,0v0c0.1-0.2,0.2-0.4,0.4-0.5l0,0c0,0,0,0,0,0c0,0,0,0,0,0
	c0,0,0,0,0,0c0,0,0,0,0,0c0,0,0,0,0,0c0,0,0,0,0,0c0,0,0,0,0,0l22.6-17.5c0,0,0,0,0,0c0.3-0.2,0.6-0.3,0.9-0.2l0,0h0
	c0,0,0.1,0,0.1,0c0,0,0,0,0,0c0,0,0.1,0,0.1,0l40.1,9.8c0.1,0,0.1,0,0.2,0c0.1,0,0.2,0.1,0.3,0.1l0,0c0,0,0,0,0,0
	c0.1,0.1,0.2,0.2,0.3,0.3l0,0c0,0,0,0,0,0l0,0c0.1,0.1,0.2,0.2,0.2,0.4c0,0,0,0,0,0c0,0.1,0.1,0.2,0.1,0.3c0,0.1,0,0.1,0,0.2v41.5
	c0,0.1,0,0.2,0,0.4l0,0c0,0,0,0,0,0c0,0,0,0,0,0c0,0,0,0,0,0l0,0c0,0,0,0.1,0,0.1v0c0,0,0,0,0,0l0,0c0,0,0,0,0,0c0,0,0,0,0,0l0,0
	c-0.1,0.2-0.2,0.4-0.4,0.6c0,0,0,0,0,0s0,0,0,0l0,0c0,0,0,0,0,0c0,0,0,0,0,0c0,0,0,0,0,0c0,0,0,0,0,0c0,0,0,0,0,0L54.6,91.7
	c0,0,0,0,0,0v0C54.4,91.9,54.2,92,54,92h0c0,0,0,0,0,0c0,0,0,0,0,0c0,0,0,0,0,0c0,0,0,0,0,0c0,0,0,0,0,0l0,0
	C53.9,92,53.8,92,53.8,92z M16.6,80.2L52.4,89V68.7l-15.9-3.9L16.6,80.2z M55.1,69.3V88l18.3-14.1L55.1,69.3z M14.9,41v37.1l20-15.4
	V45.9L14.9,41z M55.1,66.6l20,4.9V34.4l-20,15.4V66.6z M37.6,62.3l14.9,3.6V50.2l-14.9-3.6V62.3z M37.6,43.8l15.9,3.9l19.9-15.4
	l-35.8-8.8L37.6,43.8L37.6,43.8z M16.6,38.7l18.3,4.5V24.5L16.6,38.7z"/>
</svg>
